<svg width="56" height="56" viewBox="0 0 56 56" fill="none" xmlns="http://www.w3.org/2000/svg">
<path d="M21 40.6L40.6 28L21 15.4V40.6ZM28 56C24.1267 56 20.4867 55.2645 17.08 53.7936C13.6733 52.3245 10.71 50.33 8.19 47.81C5.67 45.29 3.67547 42.3267 2.2064 38.92C0.735467 35.5133 0 31.8733 0 28C0 24.1267 0.735467 20.4867 2.2064 17.08C3.67547 13.6733 5.67 10.71 8.19 8.19C10.71 5.67 13.6733 3.67453 17.08 2.2036C20.4867 0.734533 24.1267 0 28 0C31.8733 0 35.5133 0.734533 38.92 2.2036C42.3267 3.67453 45.29 5.67 47.81 8.19C50.33 10.71 52.3245 13.6733 53.7936 17.08C55.2645 20.4867 56 24.1267 56 28C56 31.8733 55.2645 35.5133 53.7936 38.92C52.3245 42.3267 50.33 45.29 47.81 47.81C45.29 50.33 42.3267 52.3245 38.92 53.7936C35.5133 55.2645 31.8733 56 28 56Z" fill="white"/>
</svg>
